<svg width="236" height="26" viewBox="0 0 236 26" fill="none" xmlns="http://www.w3.org/2000/svg">
<path fill-rule="evenodd" clip-rule="evenodd" d="M75.6512 23.3035C75.6512 23.8104 75.3959 24.0638 74.8852 24.0638H65.8883C65.671 24.0638 65.4944 24.0005 65.3586 23.8738C65.2228 23.747 65.1549 23.568 65.1549 23.3366C65.1549 23.1382 65.201 22.9784 65.2934 22.8572C65.3858 22.736 65.5297 22.6368 65.7253 22.5597L66.4262 22.3448C66.6 22.2897 66.7358 22.185 66.8336 22.0308C66.9314 21.8765 66.9803 21.6561 66.9803 21.3696V11.8159C66.9803 11.6616 66.9423 11.5322 66.8662 11.4275C66.7902 11.3228 66.6489 11.2264 66.4425 11.1382L65.4971 10.8242C65.2472 10.703 65.0679 10.5735 64.9593 10.4357C64.8506 10.298 64.7963 10.13 64.7963 9.9316C64.7963 9.73326 64.8642 9.57072 65 9.444L65.0534 9.39945C65.1835 9.30243 65.3532 9.25392 65.5623 9.25392H66.9925L66.9813 9.15733C66.9508 8.96414 66.8744 8.77871 66.7521 8.60102C66.5891 8.36411 66.4044 8.09689 66.198 7.79937C65.9915 7.50185 65.8068 7.14648 65.6438 6.73326C65.4808 6.32003 65.3993 5.81039 65.3993 5.20433C65.3993 3.7608 65.8883 2.60653 66.8662 1.74152C67.8441 0.876507 69.235 0.444 71.0387 0.444C72.2013 0.444 73.1657 0.631328 73.9317 1.00598C74.6977 1.38064 75.2709 1.87926 75.6512 2.50185C76.0315 3.12444 76.2217 3.80488 76.2217 4.54317C76.2217 5.4137 75.9962 6.06659 75.5453 6.50185C75.0943 6.93711 74.5157 7.15474 73.8095 7.15474C73.0271 7.15474 72.3969 6.9013 71.9188 6.39441C71.4407 5.88753 71.2017 5.21535 71.2017 4.37788V2.90681C71.2017 2.52114 71.1256 2.23739 70.9735 2.05557C70.8214 1.87375 70.5877 1.78284 70.2726 1.78284C69.8706 1.78284 69.5664 1.92058 69.3599 2.19607C69.1535 2.47155 69.0502 2.86824 69.0502 3.38615C69.0502 3.91507 69.1725 4.41094 69.417 4.87375C69.6614 5.33656 69.963 5.76907 70.3215 6.17127C70.6801 6.57348 71.0387 6.95915 71.3973 7.3283C71.7558 7.69744 72.0573 8.06108 72.3018 8.41921L72.3715 8.52656C72.5035 8.74111 72.5915 8.95466 72.6355 9.16722L72.6504 9.25392H75.0645C75.3144 9.25392 75.5072 9.30626 75.6431 9.41094C75.7789 9.51562 75.8468 9.67816 75.8468 9.89855C75.8468 10.2291 75.7055 10.4991 75.423 10.7085C75.1405 10.9178 74.695 11.0225 74.0865 11.0225H72.9293V21.32C72.9293 21.6286 72.9755 21.8655 73.0679 22.0308C73.1602 22.1961 73.3096 22.2952 73.5161 22.3283L74.9178 22.5432C75.1677 22.5762 75.3524 22.6561 75.4719 22.7828C75.5914 22.9096 75.6512 23.0831 75.6512 23.3035ZM43.5591 23.6837C42.5812 24.1575 41.4403 24.3944 40.1364 24.3944C38.7564 24.3944 37.5205 24.1024 36.4284 23.5184C35.3364 22.9344 34.4753 22.0886 33.8451 20.9812C33.2149 19.8738 32.8998 18.5266 32.8998 16.9399C32.8998 15.4082 33.2285 14.039 33.8859 12.8324C34.5432 11.6258 35.4587 10.6727 36.6322 9.97293C37.8057 9.2732 39.1748 8.92334 40.7394 8.92334C42.0759 8.92334 43.2033 9.12169 44.1214 9.51838C45.0396 9.91507 45.7404 10.4523 46.2239 11.13C46.7075 11.8076 46.9492 12.5652 46.9492 13.4027C46.9492 14.2842 46.6966 14.9757 46.1913 15.4771C45.6861 15.9784 44.9988 16.2291 44.1296 16.2291C43.2386 16.2291 42.5622 15.9729 42.1004 15.4605C41.6386 14.9481 41.4077 14.2457 41.4077 13.3531V12.2952C41.4077 11.7553 41.3099 11.3476 41.1143 11.0721C40.9187 10.7966 40.6417 10.6589 40.2831 10.6589C39.9245 10.6589 39.6013 10.8049 39.3133 11.0969C39.0254 11.3889 38.8026 11.8269 38.6451 12.4109C38.4875 12.995 38.4087 13.7167 38.4087 14.5762C38.4087 15.8104 38.5907 16.8462 38.9547 17.6837C39.3187 18.5211 39.8159 19.1492 40.4461 19.568C41.0763 19.9867 41.7934 20.1961 42.5975 20.1961C43.4016 20.1961 44.0752 20.0776 44.6185 19.8407C45.1618 19.6038 45.5801 19.2043 45.8735 18.6423C46.0365 18.4881 46.1642 18.3889 46.2565 18.3448C46.3489 18.3007 46.4385 18.2787 46.5255 18.2787C46.6341 18.2897 46.7238 18.3421 46.7944 18.4357C46.865 18.5294 46.8949 18.6754 46.884 18.8738C46.7971 19.9536 46.4657 20.9068 45.8898 21.7333C45.3139 22.5597 44.537 23.2098 43.5591 23.6837ZM60.1267 23.3531C58.9043 24.0253 57.4836 24.3614 55.8646 24.3614C54.2891 24.3614 52.9064 24.0335 51.7166 23.3779C50.5268 22.7222 49.6005 21.8159 48.9377 20.6589C48.2749 19.5019 47.9435 18.163 47.9435 16.6423C47.9435 15.1878 48.2912 13.8793 48.9866 12.7167C49.682 11.5542 50.6436 10.6313 51.8714 9.94813C53.0993 9.26494 54.5118 8.92334 56.1091 8.92334C57.6955 8.92334 59.0809 9.25392 60.2653 9.91507C61.4496 10.5762 62.3732 11.4908 63.036 12.6589C63.6988 13.8269 64.0303 15.1768 64.0303 16.7085C64.0303 18.163 63.6853 19.466 62.9953 20.6176C62.3053 21.7691 61.3491 22.6809 60.1267 23.3531ZM57.1033 22.6423C56.7665 22.7085 56.4378 22.5597 56.1172 22.1961C55.7967 21.8324 55.4925 21.2209 55.2045 20.3614C54.9166 19.5019 54.6422 18.3724 54.3814 16.9729C54.1315 15.5735 53.9903 14.422 53.9577 13.5184C53.9251 12.6148 53.9903 11.9316 54.1533 11.4688C54.3162 11.006 54.5662 10.736 54.903 10.6589C55.2398 10.5928 55.5685 10.7415 55.8891 11.1052C56.2096 11.4688 56.5166 12.0804 56.8099 12.9399C57.1033 13.7994 57.3804 14.9288 57.6412 16.3283C57.9019 17.7277 58.0459 18.882 58.0731 19.7911C58.1003 20.7002 58.0296 21.3861 57.8612 21.849C57.6928 22.3118 57.4402 22.5762 57.1033 22.6423ZM86.2616 24.0638C86.7723 24.0638 87.0277 23.8104 87.0277 23.3035C87.0277 23.0831 86.9679 22.9096 86.8484 22.7828C86.7289 22.6561 86.5442 22.5762 86.2942 22.5432L84.8926 22.3283C84.6861 22.2952 84.5367 22.1961 84.4443 22.0308C84.352 21.8655 84.3058 21.6286 84.3058 21.32V11.0225H85.463C86.0715 11.0225 86.517 10.9178 86.7995 10.7085C87.082 10.4991 87.2233 10.2291 87.2233 9.89855C87.2233 9.67816 87.1554 9.51562 87.0195 9.41094C86.8837 9.30626 86.6908 9.25392 86.4409 9.25392H84.0269L84.012 9.16722C83.968 8.95466 83.88 8.74111 83.748 8.52656L83.6783 8.41921C83.4338 8.06108 83.1323 7.69744 82.7737 7.3283C82.4152 6.95915 82.0566 6.57348 81.698 6.17127C81.3394 5.76907 81.0379 5.33656 80.7934 4.87375C80.549 4.41094 80.4267 3.91507 80.4267 3.38615C80.4267 2.86824 80.5299 2.47155 80.7364 2.19607C80.9428 1.92058 81.2471 1.78284 81.6491 1.78284C81.9642 1.78284 82.1978 1.87375 82.35 2.05557C82.5021 2.23739 82.5781 2.52114 82.5781 2.90681V4.37788C82.5781 5.21535 82.8172 5.88753 83.2953 6.39441C83.7734 6.9013 84.4036 7.15474 85.1859 7.15474C85.8922 7.15474 86.4708 6.93711 86.9217 6.50185C87.3727 6.06659 87.5981 5.4137 87.5981 4.54317C87.5981 3.80488 87.408 3.12444 87.0277 2.50185C86.6474 1.87926 86.0742 1.38064 85.3082 1.00598C84.5421 0.631328 83.5778 0.444 82.4152 0.444C80.6114 0.444 79.2206 0.876507 78.2427 1.74152C77.2648 2.60653 76.7758 3.7608 76.7758 5.20433C76.7758 5.81039 76.8573 6.32003 77.0203 6.73326C77.1833 7.14648 77.368 7.50185 77.5745 7.79937C77.7809 8.09689 77.9656 8.36411 78.1286 8.60102C78.2508 8.77871 78.3272 8.96414 78.3578 9.15733L78.369 9.25392H76.9388C76.7296 9.25392 76.56 9.30243 76.4299 9.39945L76.3765 9.444C76.2407 9.57072 76.1728 9.73326 76.1728 9.9316C76.1728 10.13 76.2271 10.298 76.3358 10.4357C76.4444 10.5735 76.6237 10.703 76.8736 10.8242L77.8189 11.1382C78.0254 11.2264 78.1666 11.3228 78.2427 11.4275C78.3188 11.5322 78.3568 11.6616 78.3568 11.8159V21.3696C78.3568 21.6561 78.3079 21.8765 78.2101 22.0308C78.1123 22.185 77.9765 22.2897 77.8026 22.3448L77.1018 22.5597C76.9062 22.6368 76.7622 22.736 76.6699 22.8572C76.5775 22.9784 76.5313 23.1382 76.5313 23.3366C76.5313 23.568 76.5992 23.747 76.7351 23.8738C76.8709 24.0005 77.0475 24.0638 77.2648 24.0638H86.2616ZM99.0235 23.5845C97.9695 24.1244 96.7526 24.3944 95.3726 24.3944C93.8514 24.3944 92.5149 24.0776 91.3631 23.444C90.2114 22.8104 89.3122 21.9233 88.6657 20.7828C88.0192 19.6423 87.6959 18.3228 87.6959 16.8242C87.6959 15.2484 88.0083 13.8682 88.6331 12.6837C89.2579 11.4991 90.1625 10.5762 91.3468 9.91507C92.5312 9.25392 93.9546 8.92334 95.6171 8.92334C97.0296 8.92334 98.2466 9.20158 99.268 9.75805C100.289 10.3145 101.074 11.0693 101.623 12.0225C102.172 12.9757 102.446 14.0363 102.446 15.2043C102.446 15.7112 102.31 16.1107 102.039 16.4027L101.974 16.4675C101.706 16.7163 101.337 16.8407 100.865 16.8407H93.4145L93.4305 16.917C93.6282 17.8244 93.9659 18.5511 94.4436 19.0969C95.2585 20.028 96.3451 20.4936 97.7033 20.4936C98.5726 20.4936 99.3413 20.2952 100.01 19.8985C100.678 19.5019 101.126 18.9509 101.354 18.2457C101.485 18.1024 101.601 18.006 101.705 17.9564C101.808 17.9068 101.898 17.882 101.974 17.882C102.082 17.882 102.175 17.9261 102.251 18.0142C102.327 18.1024 102.365 18.2512 102.365 18.4605C102.365 19.5404 102.071 20.5294 101.485 21.4275C100.898 22.3255 100.077 23.0445 99.0235 23.5845ZM93.2444 15.5157C93.2289 15.2621 93.2212 14.9986 93.2212 14.725C93.2212 13.6892 93.2972 12.8738 93.4494 12.2787C93.6015 11.6837 93.7971 11.2622 94.0361 11.0142C94.2752 10.7663 94.5414 10.6423 94.8347 10.6423C95.215 10.6423 95.5709 10.9674 95.9023 11.6176C96.2337 12.2677 96.3994 13.3476 96.3994 14.8572C96.3994 15.32 96.193 15.5514 95.7801 15.5514H93.2465L93.2444 15.5157ZM114.605 23.5845C113.551 24.1244 112.334 24.3944 110.954 24.3944C109.433 24.3944 108.096 24.0776 106.945 23.444C105.793 22.8104 104.894 21.9233 104.247 20.7828C103.601 19.6423 103.277 18.3228 103.277 16.8242C103.277 15.2484 103.59 13.8682 104.215 12.6837C104.839 11.4991 105.744 10.5762 106.928 9.91507C108.113 9.25392 109.536 8.92334 111.199 8.92334C112.611 8.92334 113.828 9.20158 114.85 9.75805C115.871 10.3145 116.656 11.0693 117.205 12.0225C117.753 12.9757 118.028 14.0363 118.028 15.2043C118.028 15.7112 117.892 16.1107 117.62 16.4027L117.555 16.4675C117.288 16.7163 116.918 16.8407 116.447 16.8407H108.996L109.012 16.917C109.21 17.8244 109.547 18.5511 110.025 19.0969C110.84 20.028 111.927 20.4936 113.285 20.4936C114.154 20.4936 114.923 20.2952 115.591 19.8985C116.259 19.5019 116.708 18.9509 116.936 18.2457C117.066 18.1024 117.183 18.006 117.286 17.9564C117.389 17.9068 117.479 17.882 117.555 17.882C117.664 17.882 117.756 17.9261 117.832 18.0142C117.908 18.1024 117.946 18.2512 117.946 18.4605C117.946 19.5404 117.653 20.5294 117.066 21.4275C116.479 22.3255 115.659 23.0445 114.605 23.5845ZM108.826 15.5157C108.81 15.2621 108.803 14.9986 108.803 14.725C108.803 13.6892 108.879 12.8738 109.031 12.2787C109.183 11.6837 109.379 11.2622 109.618 11.0142C109.857 10.7663 110.123 10.6423 110.416 10.6423C110.797 10.6423 111.152 10.9674 111.484 11.6176C111.815 12.2677 111.981 13.3476 111.981 14.8572C111.981 15.32 111.775 15.5514 111.362 15.5514H108.828L108.826 15.5157ZM128.5 23.8572C128.364 23.995 128.166 24.0638 127.905 24.0638H119.755C119.516 24.0638 119.329 23.9977 119.193 23.8655C119.057 23.7333 118.989 23.5514 118.989 23.32C118.989 23.1437 119.03 22.9977 119.112 22.882C119.193 22.7663 119.304 22.6589 119.446 22.5597L119.821 22.4109C119.962 22.3448 120.06 22.2401 120.114 22.0969C120.168 21.9536 120.195 21.7167 120.195 21.3861V12.9895C120.195 12.725 120.166 12.5349 120.106 12.4192C120.046 12.3035 119.946 12.2126 119.804 12.1465L119.381 12.0969C119.228 12.0087 119.117 11.9151 119.046 11.8159C118.976 11.7167 118.94 11.59 118.94 11.4357C118.94 11.2594 118.995 11.1024 119.103 10.9647C119.212 10.8269 119.397 10.7085 119.658 10.6093L124.286 9.27045C124.558 9.16025 124.786 9.08312 124.971 9.03904C125.156 8.99496 125.313 8.97293 125.444 8.97293C125.628 8.97293 125.767 9.03904 125.859 9.17127L125.889 9.21923C125.965 9.35744 126.018 9.57837 126.047 9.88202L126.171 12.4504L126.199 12.3556C126.254 12.1767 126.315 12.0051 126.381 11.8407C126.777 10.8545 127.302 10.1217 127.954 9.64235C128.606 9.16301 129.317 8.92334 130.089 8.92334C131.023 8.92334 131.74 9.23739 132.24 9.86549C132.74 10.4936 132.99 11.4468 132.99 12.725C132.99 13.9922 132.729 14.9233 132.208 15.5184C131.686 16.1134 131.012 16.4109 130.187 16.4109C129.382 16.4109 128.788 16.2071 128.402 15.7994C128.016 15.3917 127.812 14.8131 127.791 14.0638L127.774 13.4027C127.763 13.1492 127.715 12.9509 127.628 12.8076C127.541 12.6644 127.399 12.5928 127.204 12.5928C127.008 12.5928 126.837 12.6947 126.691 12.8985C126.544 13.1024 126.432 13.4137 126.356 13.8324C126.28 14.2512 126.242 14.7856 126.242 15.4357V21.2539C126.242 21.5625 126.291 21.8076 126.389 21.9895C126.487 22.1713 126.639 22.2842 126.845 22.3283L128.068 22.5762C128.296 22.6093 128.459 22.6947 128.557 22.8324C128.654 22.9702 128.703 23.1327 128.703 23.32C128.703 23.5404 128.635 23.7195 128.5 23.8572ZM141.53 24.3614C143.149 24.3614 144.57 24.0253 145.793 23.3531C147.015 22.6809 147.971 21.7691 148.661 20.6176C149.351 19.466 149.696 18.163 149.696 16.7085C149.696 15.1768 149.365 13.8269 148.702 12.6589C148.039 11.4908 147.115 10.5762 145.931 9.91507C144.747 9.25392 143.361 8.92334 141.775 8.92334C140.178 8.92334 138.765 9.26494 137.537 9.94813C136.309 10.6313 135.348 11.5542 134.652 12.7167C133.957 13.8793 133.609 15.1878 133.609 16.6423C133.609 18.163 133.941 19.5019 134.604 20.6589C135.266 21.8159 136.193 22.7222 137.382 23.3779C138.572 24.0335 139.955 24.3614 141.53 24.3614ZM141.783 22.1961C142.104 22.5597 142.432 22.7085 142.769 22.6423C143.106 22.5762 143.359 22.3118 143.527 21.849C143.695 21.3861 143.766 20.7002 143.739 19.7911C143.712 18.882 143.568 17.7277 143.307 16.3283C143.046 14.9288 142.769 13.7994 142.476 12.9399C142.182 12.0804 141.875 11.4688 141.555 11.1052C141.234 10.7415 140.906 10.5928 140.569 10.6589C140.232 10.736 139.982 11.006 139.819 11.4688C139.656 11.9316 139.591 12.6148 139.624 13.5184C139.656 14.422 139.797 15.5735 140.047 16.9729C140.308 18.3724 140.582 19.5019 140.87 20.3614C141.158 21.2209 141.463 21.8324 141.783 22.1961ZM162.621 24.3944C163.534 24.3944 164.283 24.2264 164.87 23.8903C165.457 23.5542 165.894 23.1547 166.182 22.6919C166.47 22.2291 166.614 21.8049 166.614 21.4192C166.614 21.2539 166.579 21.1162 166.508 21.006C166.438 20.8958 166.342 20.8407 166.223 20.8407C166.169 20.8407 166.12 20.8517 166.076 20.8738C166.033 20.8958 165.995 20.9288 165.962 20.9729C165.908 21.1713 165.824 21.309 165.71 21.3861C165.595 21.4633 165.473 21.5019 165.343 21.5019C165.158 21.5019 165.02 21.4385 164.927 21.3118C164.835 21.185 164.789 21.017 164.789 20.8076V13.5019C164.789 12.0473 164.297 10.9206 163.314 10.1217C162.33 9.32279 160.79 8.92334 158.693 8.92334C157.063 8.92334 155.702 9.1272 154.61 9.53491C153.518 9.94262 152.698 10.4633 152.149 11.0969C151.6 11.7305 151.326 12.3779 151.326 13.039C151.326 13.7443 151.53 14.2815 151.937 14.6506C152.345 15.0198 152.934 15.2043 153.706 15.2043C154.651 15.2043 155.395 14.9481 155.938 14.4357C156.482 13.9233 156.753 13.2594 156.753 12.444V11.1878C156.753 10.8793 156.848 10.6396 157.039 10.4688C157.229 10.298 157.465 10.2126 157.748 10.2126C158.052 10.2126 158.294 10.3255 158.473 10.5514C158.652 10.7773 158.742 11.0831 158.742 11.4688L158.741 16.287L158.655 16.2681C158.393 16.2175 158.089 16.1886 157.744 16.1813L157.568 16.1795C155.232 16.1795 153.491 16.5762 152.345 17.3696C151.198 18.163 150.625 19.2704 150.625 20.6919C150.625 21.7718 151.019 22.6589 151.807 23.3531C152.595 24.0473 153.64 24.3944 154.944 24.3944C155.922 24.3944 156.835 24.1933 157.682 23.7911C158.318 23.4895 158.835 23.0933 159.232 22.6026L159.254 22.5739L159.278 22.6479C159.404 23.0052 159.633 23.3253 159.967 23.6082L160.07 23.6919C160.673 24.1603 161.523 24.3944 162.621 24.3944ZM157.006 21.2787C157.272 21.6368 157.623 21.8159 158.057 21.8159L158.151 21.8127C158.336 21.7998 158.515 21.7481 158.688 21.6577L158.741 21.6277V17.3862L158.66 17.3614C158.476 17.3118 158.258 17.287 158.008 17.287C157.585 17.287 157.245 17.4853 156.99 17.882C156.734 18.2787 156.607 18.8627 156.607 19.6341C156.607 20.3724 156.74 20.9206 157.006 21.2787ZM174.111 24.444C176.046 24.444 177.529 23.9977 178.561 23.1052C179.593 22.2126 180.109 20.995 180.109 19.4523C180.109 18.5156 179.936 17.6947 179.588 16.9895C179.24 16.2842 178.632 15.6589 177.762 15.1134C176.893 14.568 175.671 14.0528 174.095 13.568C173.508 13.3806 173.055 13.1906 172.734 12.9977C172.414 12.8049 172.194 12.5983 172.074 12.3779C171.955 12.1575 171.895 11.9206 171.895 11.6671C171.895 11.2925 172.031 10.9895 172.302 10.758C172.574 10.5266 172.976 10.4109 173.508 10.4109C174.247 10.4109 174.945 10.6589 175.603 11.1547C176.26 11.6506 176.986 12.4991 177.779 13.7002C177.985 13.9536 178.192 14.1382 178.398 14.2539C178.604 14.3696 178.8 14.4054 178.985 14.3614C179.213 14.2952 179.354 14.1437 179.409 13.9068C179.463 13.6699 179.452 13.3311 179.376 12.8903L178.952 9.84896C178.909 9.5294 178.827 9.3035 178.708 9.17127C178.588 9.03904 178.431 8.97293 178.235 8.97293C178.061 8.97293 177.844 9.03353 177.583 9.15474C177.322 9.27596 177.064 9.39992 176.809 9.52664C176.554 9.65337 176.361 9.71673 176.23 9.71673C176.111 9.71673 175.934 9.65061 175.701 9.51838C175.467 9.38615 175.138 9.25392 174.715 9.12169C174.291 8.98945 173.742 8.92334 173.068 8.92334C171.949 8.92334 170.941 9.1272 170.045 9.53491C169.149 9.94262 168.442 10.5239 167.926 11.2787C167.41 12.0335 167.152 12.9344 167.152 13.9812C167.152 14.9068 167.345 15.7167 167.731 16.4109C168.116 17.1052 168.706 17.7002 169.499 18.1961C170.292 18.6919 171.292 19.0941 172.498 19.4027C173.28 19.612 173.881 19.8242 174.299 20.039C174.717 20.2539 175.005 20.4881 175.163 20.7415C175.32 20.995 175.399 21.276 175.399 21.5845C175.399 21.9922 175.263 22.3283 174.992 22.5928C174.72 22.8572 174.307 22.9895 173.753 22.9895C173.231 22.9895 172.734 22.8765 172.262 22.6506C171.789 22.4247 171.303 22.0363 170.803 21.4853C170.303 20.9344 169.743 20.1795 169.124 19.2209C168.939 18.9674 168.73 18.7911 168.497 18.6919C168.263 18.5928 168.027 18.5983 167.788 18.7085C167.559 18.7966 167.413 18.9839 167.348 19.2704C167.282 19.5569 167.299 19.9096 167.396 20.3283L167.902 23.6176C167.978 23.9481 168.086 24.1685 168.228 24.2787C168.369 24.3889 168.521 24.444 168.684 24.444C168.869 24.444 169.094 24.3834 169.36 24.2622L170.159 23.8985C170.425 23.7773 170.64 23.7167 170.803 23.7167C170.966 23.7167 171.18 23.7773 171.447 23.8985C171.713 24.0198 172.061 24.141 172.49 24.2622C172.919 24.3834 173.46 24.444 174.111 24.444ZM189.563 23.8242C188.846 24.2043 187.998 24.3944 187.02 24.3944C185.368 24.3944 184.127 23.9922 183.296 23.1878C182.465 22.3834 182.049 21.1162 182.049 19.3862V11.9151C182.049 11.6837 182.027 11.5074 181.984 11.3861C181.94 11.2649 181.832 11.1658 181.658 11.0886L180.892 10.8407C180.707 10.7525 180.588 10.6451 180.533 10.5184C180.479 10.3917 180.452 10.2346 180.452 10.0473C180.452 9.8159 180.533 9.62582 180.696 9.47706C180.859 9.3283 181.06 9.25392 181.299 9.25392H182.098C182.196 9.25392 182.299 9.21535 182.408 9.13822C182.516 9.06108 182.663 8.90681 182.848 8.67541L185.863 6.14648C186.08 5.88202 186.297 5.68091 186.515 5.54317C186.732 5.40543 186.949 5.33656 187.167 5.33656C187.417 5.33656 187.612 5.4137 187.753 5.56797L187.798 5.62266C187.91 5.7772 187.965 6.00139 187.965 6.29524L187.965 9.25392H191.372C191.611 9.25392 191.796 9.30626 191.926 9.41094C192.056 9.51563 192.122 9.67816 192.122 9.89855C192.122 10.2071 191.986 10.4715 191.714 10.6919L191.653 10.7375C191.38 10.9275 190.965 11.0225 190.41 11.0225H187.965L187.965 18.5597C187.965 19.3861 188.104 19.9977 188.381 20.3944C188.658 20.7911 189.063 20.9895 189.595 20.9895C189.823 20.9895 190.035 20.9399 190.231 20.8407C190.426 20.7415 190.603 20.612 190.761 20.4523C190.918 20.2925 191.068 20.1134 191.209 19.9151C191.35 19.7167 191.486 19.5184 191.616 19.32C191.725 19.276 191.82 19.2952 191.902 19.3779C191.983 19.4605 192.018 19.6286 192.007 19.882C191.931 20.7746 191.684 21.5597 191.266 22.2374C190.848 22.9151 190.28 23.444 189.563 23.8242ZM200.238 24.3944C201.618 24.3944 202.835 24.1244 203.889 23.5845C204.943 23.0445 205.764 22.3255 206.35 21.4275C206.937 20.5294 207.23 19.5404 207.23 18.4605C207.23 18.2512 207.192 18.1024 207.116 18.0142C207.04 17.9261 206.948 17.882 206.839 17.882C206.763 17.882 206.674 17.9068 206.57 17.9564C206.467 18.006 206.35 18.1024 206.22 18.2457C205.992 18.9509 205.543 19.5019 204.875 19.8985C204.207 20.2952 203.438 20.4936 202.569 20.4936C201.211 20.4936 200.124 20.028 199.309 19.0969C198.832 18.5511 198.494 17.8244 198.296 16.917L198.28 16.8407H205.731C206.202 16.8407 206.572 16.7163 206.84 16.4675L206.904 16.4027C207.176 16.1107 207.312 15.7112 207.312 15.2043C207.312 14.0363 207.038 12.9757 206.489 12.0225C205.94 11.0693 205.155 10.3145 204.134 9.75805C203.112 9.20158 201.895 8.92334 200.483 8.92334C198.82 8.92334 197.397 9.25392 196.213 9.91507C195.028 10.5762 194.124 11.4991 193.499 12.6837C192.874 13.8682 192.562 15.2484 192.562 16.8242C192.562 18.3228 192.885 19.6423 193.531 20.7828C194.178 21.9233 195.077 22.8104 196.229 23.444C197.381 24.0776 198.717 24.3944 200.238 24.3944ZM198.087 14.725C198.087 14.9986 198.095 15.2621 198.11 15.5157L198.112 15.5514H200.646C201.059 15.5514 201.265 15.32 201.265 14.8572C201.265 13.3476 201.099 12.2677 200.768 11.6176C200.437 10.9674 200.081 10.6423 199.7 10.6423C199.407 10.6423 199.141 10.7663 198.902 11.0142C198.663 11.2622 198.467 11.6837 198.315 12.2787C198.163 12.8738 198.087 13.6892 198.087 14.725ZM217.189 24.0638C217.45 24.0638 217.648 23.995 217.784 23.8572C217.92 23.7195 217.988 23.5404 217.988 23.32C217.988 23.1327 217.939 22.9702 217.841 22.8324C217.743 22.6947 217.58 22.6093 217.352 22.5762L216.129 22.3283C215.923 22.2842 215.771 22.1713 215.673 21.9895C215.575 21.8076 215.526 21.5625 215.526 21.2539V15.4357C215.526 14.7856 215.564 14.2512 215.641 13.8324C215.717 13.4137 215.828 13.1024 215.975 12.8985C216.121 12.6947 216.292 12.5928 216.488 12.5928C216.684 12.5928 216.825 12.6644 216.912 12.8076C216.999 12.9509 217.048 13.1492 217.059 13.4027L217.075 14.0638C217.097 14.8131 217.3 15.3917 217.686 15.7994C218.072 16.2071 218.667 16.4109 219.471 16.4109C220.297 16.4109 220.97 16.1134 221.492 15.5184C222.013 14.9233 222.274 13.9922 222.274 12.725C222.274 11.4468 222.024 10.4936 221.524 9.86549C221.025 9.23739 220.307 8.92334 219.373 8.92334C218.601 8.92334 217.89 9.16301 217.238 9.64235C216.586 10.1217 216.062 10.8545 215.665 11.8407C215.599 12.0051 215.538 12.1767 215.483 12.3556L215.455 12.4509L215.331 9.88202C215.302 9.57837 215.249 9.35744 215.173 9.21923L215.143 9.17127C215.051 9.03904 214.913 8.97293 214.728 8.97293C214.597 8.97293 214.44 8.99496 214.255 9.03904C214.07 9.08312 213.842 9.16025 213.571 9.27045L208.942 10.6093C208.681 10.7085 208.496 10.8269 208.388 10.9647C208.279 11.1024 208.225 11.2594 208.225 11.4357C208.225 11.59 208.26 11.7167 208.331 11.8159C208.401 11.9151 208.513 12.0087 208.665 12.0969L209.088 12.1465C209.23 12.2126 209.33 12.3035 209.39 12.4192C209.45 12.5349 209.48 12.725 209.48 12.9895V21.3861C209.48 21.7167 209.452 21.9536 209.398 22.0969C209.344 22.2401 209.246 22.3448 209.105 22.4109L208.73 22.5597C208.589 22.6589 208.477 22.7663 208.396 22.882C208.314 22.9977 208.274 23.1437 208.274 23.32C208.274 23.5514 208.341 23.7333 208.477 23.8655C208.613 23.9977 208.801 24.0638 209.04 24.0638H217.189ZM234.351 23.1052C233.319 23.9977 231.836 24.444 229.902 24.444C229.25 24.444 228.709 24.3834 228.28 24.2622C227.851 24.141 227.503 24.0198 227.237 23.8985C226.971 23.7773 226.756 23.7167 226.593 23.7167C226.43 23.7167 226.216 23.7773 225.949 23.8985L225.151 24.2622C224.885 24.3834 224.659 24.444 224.474 24.444C224.311 24.444 224.159 24.3889 224.018 24.2787C223.877 24.1685 223.768 23.9481 223.692 23.6176L223.187 20.3283C223.089 19.9096 223.073 19.5569 223.138 19.2704C223.203 18.9839 223.35 18.7966 223.578 18.7085C223.817 18.5983 224.053 18.5928 224.287 18.6919C224.521 18.7911 224.73 18.9674 224.914 19.2209C225.534 20.1795 226.093 20.9344 226.593 21.4853C227.093 22.0363 227.579 22.4247 228.052 22.6506C228.525 22.8765 229.022 22.9895 229.543 22.9895C230.097 22.9895 230.51 22.8572 230.782 22.5928C231.054 22.3283 231.189 21.9922 231.189 21.5845C231.189 21.276 231.111 20.995 230.953 20.7415C230.796 20.4881 230.508 20.2539 230.089 20.039C229.671 19.8242 229.071 19.612 228.288 19.4027C227.082 19.0941 226.083 18.6919 225.289 18.1961C224.496 17.7002 223.907 17.1052 223.521 16.4109C223.135 15.7167 222.942 14.9068 222.942 13.9812C222.942 12.9344 223.2 12.0335 223.717 11.2787C224.233 10.5239 224.939 9.94262 225.835 9.53491C226.732 9.1272 227.74 8.92334 228.859 8.92334C229.532 8.92334 230.081 8.98945 230.505 9.12169C230.929 9.25392 231.257 9.38615 231.491 9.51838C231.725 9.65061 231.901 9.71673 232.021 9.71673C232.151 9.71673 232.344 9.65337 232.599 9.52664C232.855 9.39992 233.113 9.27596 233.373 9.15474C233.634 9.03353 233.852 8.97293 234.025 8.97293C234.221 8.97293 234.379 9.03904 234.498 9.17127C234.618 9.3035 234.699 9.5294 234.743 9.84896L235.166 12.8903C235.242 13.3311 235.253 13.6699 235.199 13.9068C235.145 14.1437 235.003 14.2952 234.775 14.3614C234.59 14.4054 234.395 14.3696 234.188 14.2539C233.982 14.1382 233.776 13.9536 233.569 13.7002C232.776 12.4991 232.051 11.6506 231.393 11.1547C230.736 10.6589 230.038 10.4109 229.299 10.4109C228.766 10.4109 228.364 10.5266 228.093 10.758C227.821 10.9895 227.685 11.2925 227.685 11.6671C227.685 11.9206 227.745 12.1575 227.865 12.3779C227.984 12.5983 228.204 12.8049 228.525 12.9977C228.845 13.1906 229.299 13.3806 229.886 13.568C231.461 14.0528 232.684 14.568 233.553 15.1134C234.422 15.6589 235.031 16.2842 235.378 16.9895C235.726 17.6947 235.9 18.5156 235.9 19.4523C235.9 20.995 235.384 22.2126 234.351 23.1052Z" fill="white"/>
<path fill-rule="evenodd" clip-rule="evenodd" d="M14.3891 4.44668C10.8747 0.935127 5.66533 0.429619 2.77639 3.32166C-0.114045 6.21221 0.391444 11.4218 3.89987 14.9348C4.83584 15.8709 5.91432 16.5864 7.05279 17.0994C7.42629 14.9288 8.49726 12.8423 10.1232 11.1293C9.58474 10.9373 9.03275 10.7753 8.45676 10.6178C5.04584 9.68176 3.35088 6.83622 2.95489 3.50017C3.28241 3.89402 3.5806 4.30714 3.87792 4.71903C4.45478 5.5182 5.02833 6.31279 5.80632 6.95322C7.01657 7.94976 8.345 8.33445 9.79833 8.7553C9.85444 8.77155 9.91074 8.78785 9.96723 8.80425C10.6557 9.00375 11.2542 9.29925 11.8032 9.64426C13.2462 8.58974 14.8736 7.88773 16.5536 7.59823C16.0421 6.45971 15.3251 5.38269 14.3891 4.44668ZM8.44626 17.9334C8.66976 15.7599 9.72274 13.6343 11.4102 11.9468C14.9246 8.43524 20.134 7.92823 23.0229 10.8218C25.9134 13.7123 25.4094 18.9219 21.8965 22.435C20.209 24.1225 18.0835 25.1755 15.9101 25.4005C15.6206 25.429 15.3341 25.444 15.0536 25.444C13.1847 25.444 11.5152 24.7885 10.2852 23.5585C8.86925 22.144 8.21527 20.1459 8.44626 17.9334ZM13.5866 19.7169C14.7386 18.8379 15.9851 18.4899 17.3411 18.1194C20.752 17.1834 22.4454 14.3378 22.8429 11.0018C22.5182 11.3934 22.2222 11.8038 21.927 12.2128C21.3484 13.0149 20.7732 13.8121 19.9915 14.4548C18.7775 15.453 17.446 15.8383 15.9862 16.2608L15.8306 16.3059C12.4932 17.2749 10.8432 20.0964 10.4622 23.38C10.791 22.985 11.0922 22.5749 11.3918 22.1669C12.0421 21.2814 12.685 20.406 13.5866 19.7169Z" fill="#0E8784"/>
</svg>
